<svg id="visual" viewBox="0 0 900 600" width="900" height="600" xmlns="http://www.w3.org/2000/svg" xmlns:xlink="http://www.w3.org/1999/xlink" version="1.1"><rect x="0" y="0" width="900" height="600" fill="#0d0022"></rect><path d="M0 394L21.5 394.2C43 394.3 86 394.7 128.8 403C171.7 411.3 214.3 427.7 257.2 429.8C300 432 343 420 385.8 416C428.7 412 471.3 416 514.2 421.2C557 426.3 600 432.7 642.8 429.8C685.7 427 728.3 415 771.2 409.8C814 404.7 857 406.3 878.5 407.2L900 408L900 601L878.5 601C857 601 814 601 771.2 601C728.3 601 685.7 601 642.8 601C600 601 557 601 514.2 601C471.3 601 428.7 601 385.8 601C343 601 300 601 257.2 601C214.3 601 171.7 601 128.8 601C86 601 43 601 21.5 601L0 601Z" fill="#903eff"></path><path d="M0 406L21.5 405.7C43 405.3 86 404.7 128.8 409C171.7 413.3 214.3 422.7 257.2 432.8C300 443 343 454 385.8 449.7C428.7 445.3 471.3 425.7 514.2 421C557 416.3 600 426.7 642.8 426C685.7 425.3 728.3 413.7 771.2 412.7C814 411.7 857 421.3 878.5 426.2L900 431L900 601L878.5 601C857 601 814 601 771.2 601C728.3 601 685.7 601 642.8 601C600 601 557 601 514.2 601C471.3 601 428.7 601 385.8 601C343 601 300 601 257.2 601C214.3 601 171.7 601 128.8 601C86 601 43 601 21.5 601L0 601Z" fill="#b372ff"></path><path d="M0 504L21.5 495.3C43 486.7 86 469.3 128.8 469.3C171.7 469.3 214.3 486.7 257.2 491.2C300 495.7 343 487.3 385.8 477C428.7 466.7 471.3 454.3 514.2 452.7C557 451 600 460 642.8 465.7C685.7 471.3 728.3 473.7 771.2 478.8C814 484 857 492 878.5 496L900 500L900 601L878.5 601C857 601 814 601 771.2 601C728.3 601 685.7 601 642.8 601C600 601 557 601 514.2 601C471.3 601 428.7 601 385.8 601C343 601 300 601 257.2 601C214.3 601 171.7 601 128.8 601C86 601 43 601 21.5 601L0 601Z" fill="#d0a1ff"></path><path d="M0 484L21.5 484.7C43 485.3 86 486.7 128.8 492.2C171.7 497.7 214.3 507.3 257.2 507.8C300 508.3 343 499.7 385.8 502C428.7 504.3 471.3 517.7 514.2 522.5C557 527.3 600 523.7 642.8 516.2C685.7 508.7 728.3 497.3 771.2 497C814 496.7 857 507.3 878.5 512.7L900 518L900 601L878.5 601C857 601 814 601 771.2 601C728.3 601 685.7 601 642.8 601C600 601 557 601 514.2 601C471.3 601 428.7 601 385.8 601C343 601 300 601 257.2 601C214.3 601 171.7 601 128.8 601C86 601 43 601 21.5 601L0 601Z" fill="#e9d0ff"></path><path d="M0 535L21.5 536.5C43 538 86 541 128.8 542.5C171.7 544 214.3 544 257.2 541C300 538 343 532 385.8 529C428.7 526 471.3 526 514.2 526.8C557 527.7 600 529.3 642.8 532.7C685.7 536 728.3 541 771.2 544.7C814 548.3 857 550.7 878.5 551.8L900 553L900 601L878.5 601C857 601 814 601 771.2 601C728.3 601 685.7 601 642.8 601C600 601 557 601 514.2 601C471.3 601 428.7 601 385.8 601C343 601 300 601 257.2 601C214.3 601 171.7 601 128.8 601C86 601 43 601 21.5 601L0 601Z" fill="#ffffff"></path></svg>