<svg id="visual" viewBox="0 0 900 600" width="900" height="600" xmlns="http://www.w3.org/2000/svg" xmlns:xlink="http://www.w3.org/1999/xlink" version="1.1"><rect x="0" y="0" width="900" height="600" fill="#0d0019"></rect><path d="M0 565L18.8 559C37.7 553 75.3 541 112.8 541.5C150.3 542 187.7 555 225.2 560.7C262.7 566.3 300.3 564.7 337.8 552.7C375.3 540.7 412.7 518.3 450.2 512C487.7 505.7 525.3 515.3 562.8 523.7C600.3 532 637.7 539 675.2 536.2C712.7 533.3 750.3 520.7 787.8 511.7C825.3 502.7 862.7 497.3 881.3 494.7L900 492L900 0L881.3 0C862.7 0 825.3 0 787.8 0C750.3 0 712.7 0 675.2 0C637.7 0 600.3 0 562.8 0C525.3 0 487.7 0 450.2 0C412.7 0 375.3 0 337.8 0C300.3 0 262.7 0 225.2 0C187.7 0 150.3 0 112.8 0C75.3 0 37.7 0 18.8 0L0 0Z" fill="#903eff"></path><path d="M0 422L18.8 432C37.7 442 75.3 462 112.8 461C150.3 460 187.7 438 225.2 428.5C262.7 419 300.3 422 337.8 435C375.3 448 412.7 471 450.2 475.5C487.7 480 525.3 466 562.8 452.8C600.3 439.7 637.7 427.3 675.2 420.5C712.7 413.7 750.3 412.3 787.8 418.7C825.3 425 862.7 439 881.3 446L900 453L900 0L881.3 0C862.7 0 825.3 0 787.8 0C750.3 0 712.7 0 675.2 0C637.7 0 600.3 0 562.8 0C525.3 0 487.7 0 450.2 0C412.7 0 375.3 0 337.8 0C300.3 0 262.7 0 225.2 0C187.7 0 150.3 0 112.8 0C75.3 0 37.7 0 18.8 0L0 0Z" fill="#a862ff"></path><path d="M0 341L18.8 347.2C37.7 353.3 75.3 365.7 112.8 364C150.3 362.3 187.7 346.7 225.2 343.2C262.7 339.7 300.3 348.3 337.8 348.3C375.3 348.3 412.7 339.7 450.2 342.8C487.7 346 525.3 361 562.8 372.2C600.3 383.3 637.7 390.7 675.2 397.3C712.7 404 750.3 410 787.8 399.3C825.3 388.7 862.7 361.3 881.3 347.7L900 334L900 0L881.3 0C862.7 0 825.3 0 787.8 0C750.3 0 712.7 0 675.2 0C637.7 0 600.3 0 562.8 0C525.3 0 487.7 0 450.2 0C412.7 0 375.3 0 337.8 0C300.3 0 262.7 0 225.2 0C187.7 0 150.3 0 112.8 0C75.3 0 37.7 0 18.8 0L0 0Z" fill="#be82ff"></path><path d="M0 259L18.8 264C37.7 269 75.3 279 112.8 289.2C150.3 299.3 187.7 309.7 225.2 310.8C262.7 312 300.3 304 337.8 305.7C375.3 307.3 412.7 318.7 450.2 312.2C487.7 305.7 525.3 281.3 562.8 279.8C600.3 278.3 637.7 299.7 675.2 313.2C712.7 326.7 750.3 332.3 787.8 331.8C825.3 331.3 862.7 324.7 881.3 321.3L900 318L900 0L881.3 0C862.7 0 825.3 0 787.8 0C750.3 0 712.7 0 675.2 0C637.7 0 600.3 0 562.8 0C525.3 0 487.7 0 450.2 0C412.7 0 375.3 0 337.8 0C300.3 0 262.7 0 225.2 0C187.7 0 150.3 0 112.8 0C75.3 0 37.7 0 18.8 0L0 0Z" fill="#d0a1ff"></path><path d="M0 234L18.8 227.3C37.7 220.7 75.3 207.3 112.8 198.3C150.3 189.3 187.7 184.7 225.2 186C262.7 187.3 300.3 194.7 337.8 204.8C375.3 215 412.7 228 450.2 229.7C487.7 231.3 525.3 221.7 562.8 216C600.3 210.3 637.7 208.7 675.2 209.7C712.7 210.7 750.3 214.3 787.8 220.3C825.3 226.3 862.7 234.7 881.3 238.8L900 243L900 0L881.3 0C862.7 0 825.3 0 787.8 0C750.3 0 712.7 0 675.2 0C637.7 0 600.3 0 562.8 0C525.3 0 487.7 0 450.2 0C412.7 0 375.3 0 337.8 0C300.3 0 262.7 0 225.2 0C187.7 0 150.3 0 112.8 0C75.3 0 37.7 0 18.8 0L0 0Z" fill="#e1c0ff"></path><path d="M0 107L18.8 109.3C37.7 111.7 75.3 116.3 112.8 122.7C150.3 129 187.7 137 225.2 148.2C262.7 159.3 300.3 173.7 337.8 174.3C375.3 175 412.7 162 450.2 150.2C487.7 138.3 525.3 127.7 562.8 126.5C600.3 125.3 637.7 133.7 675.2 138.3C712.7 143 750.3 144 787.8 146C825.3 148 862.7 151 881.3 152.5L900 154L900 0L881.3 0C862.7 0 825.3 0 787.8 0C750.3 0 712.7 0 675.2 0C637.7 0 600.3 0 562.8 0C525.3 0 487.7 0 450.2 0C412.7 0 375.3 0 337.8 0C300.3 0 262.7 0 225.2 0C187.7 0 150.3 0 112.8 0C75.3 0 37.7 0 18.8 0L0 0Z" fill="#f1dfff"></path><path d="M0 91L18.8 84C37.7 77 75.3 63 112.8 65.3C150.3 67.7 187.7 86.3 225.2 93C262.7 99.7 300.3 94.3 337.8 84.2C375.3 74 412.7 59 450.2 59.3C487.7 59.7 525.3 75.3 562.8 86.3C600.3 97.3 637.7 103.7 675.2 95.8C712.7 88 750.3 66 787.8 58.7C825.3 51.3 862.7 58.7 881.3 62.3L900 66L900 0L881.3 0C862.7 0 825.3 0 787.8 0C750.3 0 712.7 0 675.2 0C637.7 0 600.3 0 562.8 0C525.3 0 487.7 0 450.2 0C412.7 0 375.3 0 337.8 0C300.3 0 262.7 0 225.2 0C187.7 0 150.3 0 112.8 0C75.3 0 37.7 0 18.8 0L0 0Z" fill="#ffffff"></path></svg>