<svg id="visual" viewBox="0 0 900 600" width="900" height="600" xmlns="http://www.w3.org/2000/svg" xmlns:xlink="http://www.w3.org/1999/xlink" version="1.1"><rect x="0" y="0" width="900" height="600" fill="#0d0019"></rect><path d="M0 244L18.8 250.8C37.7 257.7 75.3 271.3 112.8 274C150.3 276.7 187.7 268.3 225.2 268.3C262.7 268.3 300.3 276.7 337.8 283.5C375.3 290.3 412.7 295.7 450.2 287.3C487.7 279 525.3 257 562.8 246.5C600.3 236 637.7 237 675.2 242.3C712.7 247.7 750.3 257.3 787.8 266C825.3 274.7 862.7 282.3 881.3 286.2L900 290L900 0L881.3 0C862.7 0 825.3 0 787.8 0C750.3 0 712.7 0 675.2 0C637.7 0 600.3 0 562.8 0C525.3 0 487.7 0 450.2 0C412.7 0 375.3 0 337.8 0C300.3 0 262.7 0 225.2 0C187.7 0 150.3 0 112.8 0C75.3 0 37.7 0 18.8 0L0 0Z" fill="#903eff"></path><path d="M0 182L18.8 189C37.7 196 75.3 210 112.8 220.3C150.3 230.7 187.7 237.3 225.2 232.3C262.7 227.3 300.3 210.7 337.8 213.8C375.3 217 412.7 240 450.2 242.5C487.7 245 525.3 227 562.8 210.8C600.3 194.7 637.7 180.3 675.2 187.7C712.7 195 750.3 224 787.8 233.8C825.3 243.7 862.7 234.3 881.3 229.7L900 225L900 0L881.3 0C862.7 0 825.3 0 787.8 0C750.3 0 712.7 0 675.2 0C637.7 0 600.3 0 562.8 0C525.3 0 487.7 0 450.2 0C412.7 0 375.3 0 337.8 0C300.3 0 262.7 0 225.2 0C187.7 0 150.3 0 112.8 0C75.3 0 37.7 0 18.8 0L0 0Z" fill="#b372ff"></path><path d="M0 166L18.8 158.8C37.7 151.7 75.3 137.3 112.8 138.2C150.3 139 187.7 155 225.2 160.2C262.7 165.3 300.3 159.7 337.8 152.5C375.3 145.3 412.7 136.7 450.2 143.7C487.7 150.7 525.3 173.3 562.8 175.8C600.3 178.3 637.7 160.7 675.2 160.7C712.7 160.7 750.3 178.3 787.8 178.5C825.3 178.7 862.7 161.3 881.3 152.7L900 144L900 0L881.3 0C862.7 0 825.3 0 787.8 0C750.3 0 712.7 0 675.2 0C637.7 0 600.3 0 562.8 0C525.3 0 487.7 0 450.2 0C412.7 0 375.3 0 337.8 0C300.3 0 262.7 0 225.2 0C187.7 0 150.3 0 112.8 0C75.3 0 37.7 0 18.8 0L0 0Z" fill="#d0a1ff"></path><path d="M0 129L18.8 119.7C37.7 110.3 75.3 91.7 112.8 83.7C150.3 75.7 187.7 78.3 225.2 82.8C262.7 87.3 300.3 93.7 337.8 103.8C375.3 114 412.7 128 450.2 131.2C487.7 134.3 525.3 126.7 562.8 115.2C600.3 103.7 637.7 88.3 675.2 87C712.7 85.7 750.3 98.3 787.8 110.5C825.3 122.7 862.7 134.3 881.3 140.2L900 146L900 0L881.3 0C862.7 0 825.3 0 787.8 0C750.3 0 712.7 0 675.2 0C637.7 0 600.3 0 562.8 0C525.3 0 487.7 0 450.2 0C412.7 0 375.3 0 337.8 0C300.3 0 262.7 0 225.2 0C187.7 0 150.3 0 112.8 0C75.3 0 37.7 0 18.8 0L0 0Z" fill="#e9d0ff"></path><path d="M0 82L18.8 81.2C37.7 80.3 75.3 78.7 112.8 73.5C150.3 68.3 187.7 59.7 225.2 51.5C262.7 43.3 300.3 35.7 337.8 31.7C375.3 27.7 412.7 27.3 450.2 30.3C487.7 33.3 525.3 39.7 562.8 42.7C600.3 45.7 637.7 45.3 675.2 52.7C712.7 60 750.3 75 787.8 82.5C825.3 90 862.7 90 881.3 90L900 90L900 0L881.3 0C862.7 0 825.3 0 787.8 0C750.3 0 712.7 0 675.2 0C637.7 0 600.3 0 562.8 0C525.3 0 487.7 0 450.2 0C412.7 0 375.3 0 337.8 0C300.3 0 262.7 0 225.2 0C187.7 0 150.3 0 112.8 0C75.3 0 37.7 0 18.8 0L0 0Z" fill="#ffffff"></path></svg>